<svg xmlns="http://www.w3.org/2000/svg" xmlns:xlink="http://www.w3.org/1999/xlink" width="562.36" height="136.06" viewBox="0 0 562.36 136.06">
  <defs>
    <style>
      .cls-1 {
        fill: none;
      }

      .cls-2 {
        clip-path: url(#clip-path);
      }

      .cls-3 {
        clip-path: url(#clip-path-2);
      }

      .cls-4 {
        fill: #c4bd97;
      }

      .cls-5 {
        clip-path: url(#clip-path-3);
      }

      .cls-6 {
        clip-path: url(#clip-path-4);
      }

      .cls-7 {
        clip-path: url(#clip-path-5);
      }

      .cls-8 {
        clip-path: url(#clip-path-6);
      }

      .cls-9 {
        clip-path: url(#clip-path-7);
      }

      .cls-10 {
        clip-path: url(#clip-path-8);
      }

      .cls-11 {
        clip-path: url(#clip-path-9);
      }
    </style>
    <clipPath id="clip-path" transform="translate(-61.98 -202.68)">
      <rect class="cls-1" x="357.3" y="274.81" width="5.4" height="64.93"/>
    </clipPath>
    <clipPath id="clip-path-2" transform="translate(-61.98 -202.68)">
      <rect class="cls-1" width="720" height="540"/>
    </clipPath>
    <clipPath id="clip-path-3" transform="translate(-61.98 -202.68)">
      <rect class="cls-1" x="357.3" y="201.68" width="5.4" height="64.93"/>
    </clipPath>
    <clipPath id="clip-path-4" transform="translate(-61.98 -202.68)">
      <rect class="cls-1" x="357.3" y="265.74" width="5.4" height="3.13"/>
    </clipPath>
    <clipPath id="clip-path-5" transform="translate(-61.98 -202.68)">
      <rect class="cls-1" x="357.3" y="268.01" width="5.4" height="5.4"/>
    </clipPath>
    <clipPath id="clip-path-6" transform="translate(-61.98 -202.68)">
      <rect class="cls-1" x="358.44" y="266.87" width="3.12" height="3.13"/>
    </clipPath>
    <clipPath id="clip-path-7" transform="translate(-61.98 -202.68)">
      <rect class="cls-1" x="357.3" y="272.54" width="5.4" height="3.13"/>
    </clipPath>
    <clipPath id="clip-path-8" transform="translate(-61.98 -202.68)">
      <rect class="cls-1" x="358.44" y="271.41" width="3.12" height="3.13"/>
    </clipPath>
    <clipPath id="clip-path-9" transform="translate(-61.98 -202.68)">
      <rect class="cls-1" x="46.25" y="227.83" width="592.07" height="79.11"/>
    </clipPath>
  </defs>
  <title>Asset 2</title>
  <g id="Layer_2" data-name="Layer 2">
    <g id="Lag_1" data-name="Lag 1">
      <g class="cls-2">
        <g class="cls-3">
          <polygon class="cls-4" points="298.02 136.06 299.72 73.13 296.32 73.13 298.02 136.06"/>
        </g>
      </g>
      <g class="cls-5">
        <polygon class="cls-4" points="298.02 0 299.72 62.93 296.32 62.93 298.02 0"/>
      </g>
      <g class="cls-6">
        <rect class="cls-4" x="296.32" y="64.06" width="3.4" height="1.13"/>
      </g>
      <g class="cls-7">
        <rect class="cls-4" x="296.32" y="66.33" width="3.4" height="3.4"/>
      </g>
      <g class="cls-8">
        <rect class="cls-4" x="297.46" y="65.2" width="1.12" height="1.13"/>
      </g>
      <g class="cls-9">
        <rect class="cls-4" x="296.32" y="70.87" width="3.4" height="1.13"/>
      </g>
      <g class="cls-10">
        <rect class="cls-4" x="297.46" y="69.73" width="1.12" height="1.13"/>
      </g>
      <g class="cls-11">
        <g>
          <path class="cls-4" d="M64.29,277a7.24,7.24,0,0,0,1.45,1.47,7.36,7.36,0,0,0,4.55,1.5,6.52,6.52,0,0,0,2.62-.51A5.84,5.84,0,0,0,76.15,276a7,7,0,0,0,.44-2.49,4.73,4.73,0,0,0-1-3.21,8.56,8.56,0,0,0-2.57-2,30.25,30.25,0,0,0-3.32-1.45,17.07,17.07,0,0,1-3.32-1.65,8.78,8.78,0,0,1-2.57-2.53,7.31,7.31,0,0,1-1-4.14,8.35,8.35,0,0,1,.66-3.37,7.33,7.33,0,0,1,1.91-2.62,9.05,9.05,0,0,1,3-1.72,11.92,11.92,0,0,1,4-.62,11.76,11.76,0,0,1,3.65.51,9.11,9.11,0,0,1,2.86,1.56,9.49,9.49,0,0,0-.66,1.58q-.26.84-.53,2.11h-.53a11.32,11.32,0,0,0-.59-1.34,5.14,5.14,0,0,0-1-1.34,5.69,5.69,0,0,0-1.52-1,4.9,4.9,0,0,0-2.11-.42,6.29,6.29,0,0,0-2.27.4,5.44,5.44,0,0,0-1.8,1.12,5,5,0,0,0-1.19,1.74,5.7,5.7,0,0,0-.42,2.2,4.79,4.79,0,0,0,1,3.26,8.82,8.82,0,0,0,2.57,2,25.34,25.34,0,0,0,3.32,1.45,18.77,18.77,0,0,1,3.32,1.56A8.49,8.49,0,0,1,79,268a6.55,6.55,0,0,1,1,3.87,10.16,10.16,0,0,1-.73,3.83,9,9,0,0,1-2.11,3.15,9.4,9.4,0,0,1-3.39,2.07,13.3,13.3,0,0,1-4.55.73,11.35,11.35,0,0,1-4.42-.73A12,12,0,0,1,62,279.28a10.4,10.4,0,0,0,.55-1.83q.15-.81.29-2.09h.53A8.76,8.76,0,0,0,64.29,277Z" transform="translate(-61.98 -202.68)"/>
          <path class="cls-4" d="M121.25,281.09a8.28,8.28,0,0,0-1.17-.09h-2.33a8.27,8.27,0,0,0-1.17.09q-.31-1-.84-2.44t-1.17-3l-1.3-3.17q-.66-1.61-1.23-3.06l-2.86-.07-2.9,0-2.68,0-2.68.07q-1.41,3.43-2.55,6.53t-1.72,5.13a15.12,15.12,0,0,0-3.26,0q3.56-7.7,7-15.31t6.82-15.49H108l2.29,5.52q1.23,3,2.51,6t2.55,6q1.28,3,2.4,5.57t2,4.6Q120.68,280,121.25,281.09ZM101.76,267.4q1.14,0,2.38,0t2.38,0l2.46,0,2.46-.07-4.88-11.18Z" transform="translate(-61.98 -202.68)"/>
          <path class="cls-4" d="M152.53,269.67q-5.72-6.14-11.44-12.21,0,1.23-.09,3.3t0,5.63q0,.92,0,2.29t0,2.86q0,1.5.07,3t.09,2.86q0,1.32.09,2.31t.09,1.34a12.49,12.49,0,0,0-1.54-.09,14,14,0,0,0-1.63.09q.09-.44.2-1.63t.2-2.84q.09-1.65.2-3.59t.18-3.87q.07-1.94.11-3.78t0-3.3q0-4.22,0-7.26t-.11-4.53h.7l5.74,6.23q3.06,3.32,6.07,6.56l5.72,6.12q2.71,2.88,4.73,4.91v-6q0-4.62-.07-9t-.29-8.25a6.34,6.34,0,0,0,1.5.22,6.15,6.15,0,0,0,1.41-.22q-.09,1-.2,2.9t-.22,4.14q-.11,2.2-.2,4.31t-.09,3.39v2.64q0,1.5,0,3.12t0,3.28q0,1.65,0,3.08t0,2.49v1.45h-.62Q158.25,275.81,152.53,269.67Z" transform="translate(-61.98 -202.68)"/>
          <path class="cls-4" d="M206.5,280.05a11.85,11.85,0,0,1-2.07.75q-1.21.33-2.71.59a18,18,0,0,1-3.12.26,20.06,20.06,0,0,1-6.42-1,13.54,13.54,0,0,1-5.08-3,14.19,14.19,0,0,1-3.34-5,19,19,0,0,1,0-13.33,13.92,13.92,0,0,1,3.39-5,14.61,14.61,0,0,1,5.21-3.08,20.24,20.24,0,0,1,6.69-1.06,22.08,22.08,0,0,1,5.3.59,24.88,24.88,0,0,1,4.25,1.43A5.78,5.78,0,0,0,208,254q-.22,1.06-.35,1.76l-.26.09a9.81,9.81,0,0,0-1.23-1.19,13.62,13.62,0,0,0-1.85-1.28,11.8,11.8,0,0,0-2.38-1,9.59,9.59,0,0,0-2.9-.42,13.59,13.59,0,0,0-4.82.84,10.26,10.26,0,0,0-3.87,2.57,12,12,0,0,0-2.57,4.4,22,22,0,0,0,0,12.63,12,12,0,0,0,2.57,4.4,10.24,10.24,0,0,0,3.87,2.57,13.56,13.56,0,0,0,4.82.84,10.28,10.28,0,0,0,2.93-.4,15.56,15.56,0,0,0,2.46-.95,14.74,14.74,0,0,0,2-1.19q.9-.64,1.52-1.12l.18.18-.4,2.6A5.71,5.71,0,0,1,206.5,280.05Z" transform="translate(-61.98 -202.68)"/>
          <path class="cls-4" d="M229.31,253.15l-2.4,0q-1.25,0-2.51.09l-2.42.15q-1.17.09-2.09.22a5.34,5.34,0,0,0,.22-1.41,6.08,6.08,0,0,0-.22-1.36l5.68.15q2.77.07,5.68.07t5.68-.07l5.68-.15a6.12,6.12,0,0,0-.22,1.41,5.21,5.21,0,0,0,.22,1.36q-.92-.13-2.09-.22l-2.42-.15q-1.25-.07-2.51-.09l-2.4,0q-.13,4.53-.13,9.11v7.57q0,2.9.11,5.72t.24,5.54q-1-.09-2.16-.09t-2.16.09q.13-2.73.24-5.54t.11-5.72v-7.57Q229.44,257.68,229.31,253.15Z" transform="translate(-61.98 -202.68)"/>
          <path class="cls-4" d="M282.95,265.16q0-6.25,0-9.64a45,45,0,0,0-.22-4.66l.92.15a5.93,5.93,0,0,0,.88.07,4.77,4.77,0,0,0,1.32-.22q-.13,1.54-.26,3.67t-.22,4.58q-.09,2.44-.18,5t-.13,5a15.92,15.92,0,0,1-.9,5.28,11.07,11.07,0,0,1-2.44,4,10.17,10.17,0,0,1-3.89,2.46,15.55,15.55,0,0,1-5.3.84q-6.6,0-9.59-3t-3-9.46q0-2.07.11-3.67t.11-3.28q0-3.7-.09-6.56t-.18-4.84q.53.09,1.14.15a10.81,10.81,0,0,0,1.14.07,6.69,6.69,0,0,0,.95-.07l.95-.15q-.09,1-.18,2.53t-.18,3.54q-.09,2-.13,4.27t0,4.75q0,1.5,0,3.1a21.55,21.55,0,0,0,.31,3.12,13,13,0,0,0,.86,2.9,7.15,7.15,0,0,0,1.69,2.42,7.78,7.78,0,0,0,2.77,1.63,12.45,12.45,0,0,0,4.14.59,10.38,10.38,0,0,0,4.07-.7,7.74,7.74,0,0,0,2.71-1.85,8.45,8.45,0,0,0,1.65-2.64,14.89,14.89,0,0,0,.86-3.12,24.39,24.39,0,0,0,.31-3.26Q282.95,266.52,282.95,265.16Z" transform="translate(-61.98 -202.68)"/>
          <path class="cls-4" d="M315.44,262.43q3.1,5.9,6.49,12.1l1.28-2.4,1.94-3.59q1.1-2,2.35-4.38L330,259.4q1.3-2.42,2.57-4.75l2.38-4.36h.57q.48,4.22.9,8.16t.86,7.74q.44,3.81.88,7.52t1,7.37a6.3,6.3,0,0,0-1-.09h-2.07a6.29,6.29,0,0,0-1,.09q-.48-5.85-1-11.35t-1.19-11.22h-.09q-3,5.54-6,11T321.27,281h-.4q-2.64-5.54-5.52-11.11t-5.79-11.37h-.09q-.31,2.73-.68,5.92t-.68,6.29q-.31,3.1-.53,5.85t-.22,4.51a13.54,13.54,0,0,0-3.08,0q.57-3.56,1.19-7.52t1.19-8q.57-4,1.06-7.9t.84-7.41h.75Q312.34,256.54,315.44,262.43Z" transform="translate(-61.98 -202.68)"/>
          <path class="cls-4" d="M405,281.09a8.28,8.28,0,0,0-1.17-.09h-2.33a8.26,8.26,0,0,0-1.17.09q-.31-1-.84-2.44t-1.17-3l-1.3-3.17q-.66-1.61-1.23-3.06l-2.86-.07-2.9,0-2.68,0-2.68.07q-1.41,3.43-2.55,6.53t-1.72,5.13a15.12,15.12,0,0,0-3.26,0q3.56-7.7,7-15.31t6.82-15.49h.84l2.29,5.52q1.23,3,2.51,6t2.55,6q1.28,3,2.4,5.57t2,4.6Q404.39,280,405,281.09ZM385.47,267.4q1.14,0,2.38,0t2.38,0l2.46,0,2.46-.07-4.88-11.18Z" transform="translate(-61.98 -202.68)"/>
          <path class="cls-4" d="M436.24,269.67q-5.72-6.14-11.44-12.21,0,1.23-.09,3.3t0,5.63q0,.92,0,2.29t0,2.86q0,1.5.07,3t.09,2.86q0,1.32.09,2.31t.09,1.34a12.49,12.49,0,0,0-1.54-.09,14,14,0,0,0-1.63.09q.09-.44.2-1.63t.2-2.84q.09-1.65.2-3.59t.18-3.87q.07-1.94.11-3.78t0-3.3q0-4.22,0-7.26t-.11-4.53h.7l5.74,6.23q3.06,3.32,6.07,6.56l5.72,6.12q2.71,2.88,4.73,4.91v-6q0-4.62-.07-9t-.29-8.25a6.34,6.34,0,0,0,1.5.22,6.16,6.16,0,0,0,1.41-.22q-.09,1-.2,2.9t-.22,4.14q-.11,2.2-.2,4.31t-.09,3.39v2.64q0,1.5,0,3.12l0,3.28q0,1.65,0,3.08t0,2.49v1.45H447Q442,275.81,436.24,269.67Z" transform="translate(-61.98 -202.68)"/>
          <path class="cls-4" d="M491.42,281.09a8.27,8.27,0,0,0-1.17-.09h-2.33a8.28,8.28,0,0,0-1.17.09q-.31-1-.84-2.44t-1.17-3l-1.3-3.17q-.66-1.61-1.23-3.06l-2.86-.07-2.9,0-2.68,0-2.68.07q-1.41,3.43-2.55,6.53t-1.72,5.13a15.12,15.12,0,0,0-3.26,0q3.56-7.7,7-15.31t6.82-15.49h.84l2.29,5.52q1.23,3,2.51,6t2.55,6q1.28,3,2.4,5.57t2,4.6Q490.85,280,491.42,281.09ZM471.93,267.4q1.14,0,2.38,0t2.38,0l2.46,0,2.46-.07-4.88-11.18Z" transform="translate(-61.98 -202.68)"/>
          <path class="cls-4" d="M522.7,269.67q-5.72-6.14-11.44-12.21,0,1.23-.09,3.3t0,5.63q0,.92,0,2.29t0,2.86q0,1.5.07,3t.09,2.86q0,1.32.09,2.31t.09,1.34A12.49,12.49,0,0,0,510,281a14,14,0,0,0-1.63.09q.09-.44.2-1.63t.2-2.84q.09-1.65.2-3.59t.18-3.87q.07-1.94.11-3.78t0-3.3q0-4.22,0-7.26t-.11-4.53h.7l5.74,6.23q3.06,3.32,6.07,6.56l5.72,6.12q2.71,2.88,4.73,4.91v-6q0-4.62-.07-9t-.29-8.25a6.34,6.34,0,0,0,1.5.22,6.16,6.16,0,0,0,1.41-.22q-.09,1-.2,2.9t-.22,4.14q-.11,2.2-.2,4.31T534,265.6v2.64q0,1.5,0,3.12l0,3.28q0,1.65,0,3.08t0,2.49v1.45h-.62Q528.42,275.81,522.7,269.67Z" transform="translate(-61.98 -202.68)"/>
          <path class="cls-4" d="M555.17,262.26q0-2.9-.11-5.7t-.24-5.7l3.32.15q1.65.07,3.32.07t3.32-.11q1.65-.11,3.32-.11a19.23,19.23,0,0,1,6.62,1,11.56,11.56,0,0,1,4.51,2.88,11.33,11.33,0,0,1,2.57,4.58,21.16,21.16,0,0,1,.81,6.09,16.37,16.37,0,0,1-1.52,7.41,14.15,14.15,0,0,1-3.87,4.86,14.48,14.48,0,0,1-5.19,2.62,20.73,20.73,0,0,1-5.43.77q-1.5,0-2.95,0t-2.95,0h-2.95q-1.45,0-2.95.09.13-2.73.24-5.54t.11-5.72Zm3.61,7.57q0,4.75.26,9.33a16.17,16.17,0,0,0,2.51.33q1.58.11,3.26.11a21,21,0,0,0,4.84-.57,10.5,10.5,0,0,0,4.33-2.16,11.53,11.53,0,0,0,3.12-4.33,21.44,21.44,0,0,0,.26-13.4,9.57,9.57,0,0,0-2.6-3.89,9.19,9.19,0,0,0-3.94-2,21.48,21.48,0,0,0-5-.55q-2,0-3.7.13t-3.08.31q-.13,2.11-.2,4.42t-.07,4.69Z" transform="translate(-61.98 -202.68)"/>
          <path class="cls-4" d="M624.34,281.09a8.27,8.27,0,0,0-1.17-.09h-2.33a8.28,8.28,0,0,0-1.17.09q-.31-1-.84-2.44t-1.17-3l-1.3-3.17q-.66-1.61-1.23-3.06l-2.86-.07-2.9,0-2.68,0-2.68.07q-1.41,3.43-2.55,6.53t-1.72,5.13a15.12,15.12,0,0,0-3.26,0q3.56-7.7,7-15.31t6.82-15.49h.84l2.29,5.52q1.23,3,2.51,6t2.55,6q1.28,3,2.4,5.57t2,4.6Q623.77,280,624.34,281.09ZM604.85,267.4q1.14,0,2.38,0t2.38,0l2.46,0,2.46-.07-4.88-11.18Z" transform="translate(-61.98 -202.68)"/>
        </g>
      </g>
    </g>
  </g>
</svg>
